<mxfile host="app.diagrams.net" agent="Mozilla/5.0 (Windows NT 10.0; Win64; x64) AppleWebKit/537.36 (KHTML, like Gecko) Chrome/129.0.0.0 Safari/537.36 Edg/129.0.0.0" version="24.7.17">
  <diagram id="C5RBs43oDa-KdzZeNtuy" name="Page-1">
    <mxGraphModel dx="1426" dy="789" grid="1" gridSize="10" guides="1" tooltips="1" connect="1" arrows="1" fold="1" page="1" pageScale="1" pageWidth="827" pageHeight="1169" math="0" shadow="0">
      <root>
        <mxCell id="WIyWlLk6GJQsqaUBKTNV-0" />
        <mxCell id="WIyWlLk6GJQsqaUBKTNV-1" parent="WIyWlLk6GJQsqaUBKTNV-0" />
        <mxCell id="-DHMGMaQunlLiE7V6ZmZ-9" style="edgeStyle=orthogonalEdgeStyle;rounded=0;orthogonalLoop=1;jettySize=auto;html=1;exitX=0.5;exitY=1;exitDx=0;exitDy=0;exitPerimeter=0;entryX=0.5;entryY=0;entryDx=0;entryDy=0;" parent="WIyWlLk6GJQsqaUBKTNV-1" source="-DHMGMaQunlLiE7V6ZmZ-2" target="-DHMGMaQunlLiE7V6ZmZ-8" edge="1">
          <mxGeometry relative="1" as="geometry" />
        </mxCell>
        <mxCell id="-DHMGMaQunlLiE7V6ZmZ-2" value="Product DB" style="strokeWidth=2;html=1;shape=mxgraph.flowchart.database;whiteSpace=wrap;" parent="WIyWlLk6GJQsqaUBKTNV-1" vertex="1">
          <mxGeometry x="80" y="160" width="120" height="70" as="geometry" />
        </mxCell>
        <mxCell id="-DHMGMaQunlLiE7V6ZmZ-11" style="edgeStyle=orthogonalEdgeStyle;rounded=0;orthogonalLoop=1;jettySize=auto;html=1;exitX=0.5;exitY=1;exitDx=0;exitDy=0;exitPerimeter=0;entryX=0.5;entryY=0;entryDx=0;entryDy=0;" parent="WIyWlLk6GJQsqaUBKTNV-1" source="-DHMGMaQunlLiE7V6ZmZ-3" target="-DHMGMaQunlLiE7V6ZmZ-10" edge="1">
          <mxGeometry relative="1" as="geometry" />
        </mxCell>
        <mxCell id="-DHMGMaQunlLiE7V6ZmZ-3" value="Marketdata DB" style="strokeWidth=2;html=1;shape=mxgraph.flowchart.database;whiteSpace=wrap;" parent="WIyWlLk6GJQsqaUBKTNV-1" vertex="1">
          <mxGeometry x="460" y="160" width="120" height="70" as="geometry" />
        </mxCell>
        <mxCell id="-DHMGMaQunlLiE7V6ZmZ-12" style="edgeStyle=orthogonalEdgeStyle;rounded=0;orthogonalLoop=1;jettySize=auto;html=1;exitX=1;exitY=0.5;exitDx=0;exitDy=0;entryX=0;entryY=0.5;entryDx=0;entryDy=0;" parent="WIyWlLk6GJQsqaUBKTNV-1" source="-DHMGMaQunlLiE7V6ZmZ-8" target="-DHMGMaQunlLiE7V6ZmZ-10" edge="1">
          <mxGeometry relative="1" as="geometry" />
        </mxCell>
        <mxCell id="-DHMGMaQunlLiE7V6ZmZ-14" style="edgeStyle=orthogonalEdgeStyle;rounded=0;orthogonalLoop=1;jettySize=auto;html=1;exitX=0.5;exitY=1;exitDx=0;exitDy=0;entryX=0.5;entryY=0;entryDx=0;entryDy=0;" parent="WIyWlLk6GJQsqaUBKTNV-1" source="-DHMGMaQunlLiE7V6ZmZ-8" target="-DHMGMaQunlLiE7V6ZmZ-13" edge="1">
          <mxGeometry relative="1" as="geometry" />
        </mxCell>
        <mxCell id="-DHMGMaQunlLiE7V6ZmZ-8" value="get portfolio" style="rounded=1;whiteSpace=wrap;html=1;absoluteArcSize=1;arcSize=14;strokeWidth=2;" parent="WIyWlLk6GJQsqaUBKTNV-1" vertex="1">
          <mxGeometry x="90" y="270" width="100" height="60" as="geometry" />
        </mxCell>
        <mxCell id="-DHMGMaQunlLiE7V6ZmZ-16" style="edgeStyle=orthogonalEdgeStyle;rounded=0;orthogonalLoop=1;jettySize=auto;html=1;exitX=0.5;exitY=1;exitDx=0;exitDy=0;entryX=0.5;entryY=0;entryDx=0;entryDy=0;" parent="WIyWlLk6GJQsqaUBKTNV-1" source="-DHMGMaQunlLiE7V6ZmZ-10" target="-DHMGMaQunlLiE7V6ZmZ-15" edge="1">
          <mxGeometry relative="1" as="geometry" />
        </mxCell>
        <mxCell id="-DHMGMaQunlLiE7V6ZmZ-10" value="get marketdata" style="rounded=1;whiteSpace=wrap;html=1;absoluteArcSize=1;arcSize=14;strokeWidth=2;" parent="WIyWlLk6GJQsqaUBKTNV-1" vertex="1">
          <mxGeometry x="470" y="270" width="100" height="60" as="geometry" />
        </mxCell>
        <mxCell id="SrVGWsWQSKYlN-7OCNcc-1" style="edgeStyle=orthogonalEdgeStyle;rounded=0;orthogonalLoop=1;jettySize=auto;html=1;exitX=0.5;exitY=1;exitDx=0;exitDy=0;" edge="1" parent="WIyWlLk6GJQsqaUBKTNV-1" source="-DHMGMaQunlLiE7V6ZmZ-13" target="SrVGWsWQSKYlN-7OCNcc-0">
          <mxGeometry relative="1" as="geometry" />
        </mxCell>
        <mxCell id="-DHMGMaQunlLiE7V6ZmZ-13" value="&lt;div&gt;[OPTIONAL]&lt;/div&gt;stress CR&amp;nbsp;&lt;div&gt;parameters&lt;/div&gt;" style="rounded=1;whiteSpace=wrap;html=1;absoluteArcSize=1;arcSize=14;strokeWidth=2;" parent="WIyWlLk6GJQsqaUBKTNV-1" vertex="1">
          <mxGeometry x="90" y="370" width="100" height="70" as="geometry" />
        </mxCell>
        <mxCell id="SrVGWsWQSKYlN-7OCNcc-5" style="edgeStyle=orthogonalEdgeStyle;rounded=0;orthogonalLoop=1;jettySize=auto;html=1;exitX=0.5;exitY=1;exitDx=0;exitDy=0;entryX=0.5;entryY=0;entryDx=0;entryDy=0;" edge="1" parent="WIyWlLk6GJQsqaUBKTNV-1" source="-DHMGMaQunlLiE7V6ZmZ-15" target="SrVGWsWQSKYlN-7OCNcc-0">
          <mxGeometry relative="1" as="geometry" />
        </mxCell>
        <mxCell id="-DHMGMaQunlLiE7V6ZmZ-15" value="&lt;div&gt;[OPTIONAL]&lt;/div&gt;stress MR&lt;div&gt;data&lt;/div&gt;" style="rounded=1;whiteSpace=wrap;html=1;absoluteArcSize=1;arcSize=14;strokeWidth=2;" parent="WIyWlLk6GJQsqaUBKTNV-1" vertex="1">
          <mxGeometry x="470" y="370" width="100" height="70" as="geometry" />
        </mxCell>
        <mxCell id="-DHMGMaQunlLiE7V6ZmZ-20" style="edgeStyle=orthogonalEdgeStyle;rounded=0;orthogonalLoop=1;jettySize=auto;html=1;exitX=1;exitY=0.5;exitDx=0;exitDy=0;entryX=0;entryY=0.5;entryDx=0;entryDy=0;" parent="WIyWlLk6GJQsqaUBKTNV-1" source="-DHMGMaQunlLiE7V6ZmZ-17" target="-DHMGMaQunlLiE7V6ZmZ-15" edge="1">
          <mxGeometry relative="1" as="geometry" />
        </mxCell>
        <mxCell id="-DHMGMaQunlLiE7V6ZmZ-21" style="edgeStyle=orthogonalEdgeStyle;rounded=0;orthogonalLoop=1;jettySize=auto;html=1;exitX=0;exitY=0.5;exitDx=0;exitDy=0;entryX=1;entryY=0.5;entryDx=0;entryDy=0;" parent="WIyWlLk6GJQsqaUBKTNV-1" source="-DHMGMaQunlLiE7V6ZmZ-17" target="-DHMGMaQunlLiE7V6ZmZ-13" edge="1">
          <mxGeometry relative="1" as="geometry" />
        </mxCell>
        <mxCell id="-DHMGMaQunlLiE7V6ZmZ-17" value="&lt;div&gt;[OPTIONAL]&lt;/div&gt;Scenario definition" style="rounded=1;whiteSpace=wrap;html=1;absoluteArcSize=1;arcSize=14;strokeWidth=2;" parent="WIyWlLk6GJQsqaUBKTNV-1" vertex="1">
          <mxGeometry x="280" y="370" width="100" height="70" as="geometry" />
        </mxCell>
        <mxCell id="SrVGWsWQSKYlN-7OCNcc-7" value="" style="edgeStyle=orthogonalEdgeStyle;rounded=0;orthogonalLoop=1;jettySize=auto;html=1;" edge="1" parent="WIyWlLk6GJQsqaUBKTNV-1" source="SrVGWsWQSKYlN-7OCNcc-0" target="SrVGWsWQSKYlN-7OCNcc-6">
          <mxGeometry relative="1" as="geometry" />
        </mxCell>
        <mxCell id="SrVGWsWQSKYlN-7OCNcc-0" value="generate Cash Flows" style="rounded=1;whiteSpace=wrap;html=1;absoluteArcSize=1;arcSize=14;strokeWidth=2;" vertex="1" parent="WIyWlLk6GJQsqaUBKTNV-1">
          <mxGeometry x="280" y="530" width="100" height="65" as="geometry" />
        </mxCell>
        <mxCell id="SrVGWsWQSKYlN-7OCNcc-9" style="edgeStyle=orthogonalEdgeStyle;rounded=0;orthogonalLoop=1;jettySize=auto;html=1;" edge="1" parent="WIyWlLk6GJQsqaUBKTNV-1" source="SrVGWsWQSKYlN-7OCNcc-6" target="SrVGWsWQSKYlN-7OCNcc-8">
          <mxGeometry relative="1" as="geometry" />
        </mxCell>
        <mxCell id="SrVGWsWQSKYlN-7OCNcc-6" value="Valuation (Price) and [OPTIONAL] Sensitivities" style="rounded=1;whiteSpace=wrap;html=1;arcSize=14;strokeWidth=2;" vertex="1" parent="WIyWlLk6GJQsqaUBKTNV-1">
          <mxGeometry x="270" y="630" width="120" height="72.5" as="geometry" />
        </mxCell>
        <mxCell id="SrVGWsWQSKYlN-7OCNcc-8" value="[OPTIONAL]&lt;div&gt;(quantile based) risk measures&lt;/div&gt;" style="rounded=1;whiteSpace=wrap;html=1;arcSize=14;strokeWidth=2;" vertex="1" parent="WIyWlLk6GJQsqaUBKTNV-1">
          <mxGeometry x="460" y="630" width="120" height="72.5" as="geometry" />
        </mxCell>
      </root>
    </mxGraphModel>
  </diagram>
</mxfile>
